HIERARCHY
ROOT ZeroOut_JNT
{
  OFFSET 0 0 0
  CHANNELS 6 Xposition Yposition Zposition Zrotation Xrotation Yrotation
  JOINT SpineFinal_1_JNT
  {
    OFFSET 0 59.8141 -42.9993
    CHANNELS 6 Xposition Yposition Zposition Zrotation Xrotation Yrotation
    JOINT l_legIKClavicle_Root_JNT
    {
      OFFSET -0.323145 -1.55994 9.59625
      CHANNELS 6 Xposition Yposition Zposition Zrotation Xrotation Yrotation
      JOINT l_legBlendRoot_JNT
      {
        OFFSET 16.1374 0 0
        CHANNELS 6 Xposition Yposition Zposition Zrotation Xrotation Yrotation
        JOINT l_legBlendMiddle_JNT
        {
          OFFSET 27.0969 0 0
          CHANNELS 6 Xposition Yposition Zposition Zrotation Xrotation Yrotation
          JOINT l_legBlendEnd_JNT
          {
            OFFSET 24.8414 0 0
            CHANNELS 6 Xposition Yposition Zposition Zrotation Xrotation Yrotation
            JOINT l_legBlendTip_JNT
            {
              OFFSET 6.77858 0 0
              CHANNELS 6 Xposition Yposition Zposition Zrotation Xrotation Yrotation
              End Site
              {
                OFFSET 0 0 0
              }
            }
          }
        }
      }
    }
    JOINT SpineFinal_2_JNT
    {
      OFFSET -19.5366 0.0587492 -0.00256357
      CHANNELS 6 Xposition Yposition Zposition Zrotation Xrotation Yrotation
      JOINT SpineFinal_3_JNT
      {
        OFFSET -19.4679 1.47333 -0.00136182
        CHANNELS 6 Xposition Yposition Zposition Zrotation Xrotation Yrotation
        JOINT SpineFinal_4_JNT
        {
          OFFSET -18.2335 5.20609 0
          CHANNELS 6 Xposition Yposition Zposition Zrotation Xrotation Yrotation
          JOINT SpineFinal_5_JNT
          {
            OFFSET -17.3574 8.01768 -1.82773e-005
            CHANNELS 6 Xposition Yposition Zposition Zrotation Xrotation Yrotation
            JOINT SpineFinal_6_JNT
            {
              OFFSET -19.144 8.35871 0
              CHANNELS 6 Xposition Yposition Zposition Zrotation Xrotation Yrotation
              JOINT SpineFinal_7_JNT
              {
                OFFSET -16.3943 7.24542 0
                CHANNELS 6 Xposition Yposition Zposition Zrotation Xrotation Yrotation
                JOINT SpineFinal_8_JNT
                {
                  OFFSET -19.3877 2.40349 0
                  CHANNELS 6 Xposition Yposition Zposition Zrotation Xrotation Yrotation
                  JOINT head_JNT
                  {
                    OFFSET -13.796 -11.6756 0
                    CHANNELS 6 Xposition Yposition Zposition Zrotation Xrotation Yrotation
                    JOINT l_hornRoot_JNT
                    {
                      OFFSET -15.825 14.8229 15.3879
                      CHANNELS 6 Xposition Yposition Zposition Zrotation Xrotation Yrotation
                      JOINT l_hornMid_JNT
                      {
                        OFFSET 6.55118 0 0
                        CHANNELS 6 Xposition Yposition Zposition Zrotation Xrotation Yrotation
                        JOINT l_hornEnd_JNT
                        {
                          OFFSET 6.73503 0 0
                          CHANNELS 6 Xposition Yposition Zposition Zrotation Xrotation Yrotation
                          End Site
                          {
                            OFFSET 0 0 0
                          }
                        }
                      }
                    }
                    JOINT headJend_JNT
                    {
                      OFFSET 1.34858 -27.5886 0
                      CHANNELS 6 Xposition Yposition Zposition Zrotation Xrotation Yrotation
                      End Site
                      {
                        OFFSET 0 0 0
                      }
                    }
                    JOINT r_hornRoot_JNT
                    {
                      OFFSET -15.825 14.8229 -15.3879
                      CHANNELS 6 Xposition Yposition Zposition Zrotation Xrotation Yrotation
                      JOINT r_hornMid_JNT
                      {
                        OFFSET -2.40814 5.46468 -2.69372
                        CHANNELS 6 Xposition Yposition Zposition Zrotation Xrotation Yrotation
                        JOINT r_hornEnd_JNT
                        {
                          OFFSET -2.40922 6.0083 -1.85921
                          CHANNELS 6 Xposition Yposition Zposition Zrotation Xrotation Yrotation
                          End Site
                          {
                            OFFSET 0 0 0
                          }
                        }
                      }
                    }
                    JOINT m_upLip_JNT
                    {
                      OFFSET 4.72477 -9.87974 0
                      CHANNELS 6 Xposition Yposition Zposition Zrotation Xrotation Yrotation
                      JOINT l_lipUpRoot_JNT
                      {
                        OFFSET 2.68891 -0.690234 4.02874
                        CHANNELS 6 Xposition Yposition Zposition Zrotation Xrotation Yrotation
                        JOINT l_lipUpEnd_JNT
                        {
                          OFFSET 0 0 -14.9226
                          CHANNELS 6 Xposition Yposition Zposition Zrotation Xrotation Yrotation
                          End Site
                          {
                            OFFSET 0 0 0
                          }
                        }
                      }
                      JOINT m_upLipRoot_JNT
                      {
                        OFFSET 0 0 3.94939
                        CHANNELS 6 Xposition Yposition Zposition Zrotation Xrotation Yrotation
                        JOINT m_upLipEnd_JNT
                        {
                          OFFSET 0 0 15.0019
                          CHANNELS 6 Xposition Yposition Zposition Zrotation Xrotation Yrotation
                          End Site
                          {
                            OFFSET 0 0 0
                          }
                        }
                      }
                      JOINT r_lipUpRoot_JNT
                      {
                        OFFSET -2.689 -0.690236 4.02875
                        CHANNELS 6 Xposition Yposition Zposition Zrotation Xrotation Yrotation
                        JOINT r_lipUpEnd_JNT
                        {
                          OFFSET 9.35075e-005 -0.000392738 14.9226
                          CHANNELS 6 Xposition Yposition Zposition Zrotation Xrotation Yrotation
                          End Site
                          {
                            OFFSET 0 0 0
                          }
                        }
                      }
                    }
                    JOINT m_DnLip_JNT
                    {
                      OFFSET 6.0207 -9.81639 0
                      CHANNELS 6 Xposition Yposition Zposition Zrotation Xrotation Yrotation
                      JOINT l_lipDn_JNT
                      {
                        OFFSET 2.71301 -0.162748 3.99146
                        CHANNELS 6 Xposition Yposition Zposition Zrotation Xrotation Yrotation
                        JOINT l_lipEnd_JNT
                        {
                          OFFSET 0 0 -14.9599
                          CHANNELS 6 Xposition Yposition Zposition Zrotation Xrotation Yrotation
                          End Site
                          {
                            OFFSET 0 0 0
                          }
                        }
                      }
                      JOINT m_dnLip_JNT
                      {
                        OFFSET 0 -0.0431035 3.99141
                        CHANNELS 6 Xposition Yposition Zposition Zrotation Xrotation Yrotation
                        JOINT m_dnLipEnd_JNT
                        {
                          OFFSET 0 0 14.9599
                          CHANNELS 6 Xposition Yposition Zposition Zrotation Xrotation Yrotation
                          End Site
                          {
                            OFFSET 0 0 0
                          }
                        }
                      }
                      JOINT r_lipDn_JNT
                      {
                        OFFSET -2.71301 -0.162761 3.99141
                        CHANNELS 6 Xposition Yposition Zposition Zrotation Xrotation Yrotation
                        JOINT r_lipDnEnd_JNT
                        {
                          OFFSET 0 0 14.9599
                          CHANNELS 6 Xposition Yposition Zposition Zrotation Xrotation Yrotation
                          End Site
                          {
                            OFFSET 0 0 0
                          }
                        }
                      }
                    }
                    JOINT l_lid_JNT
                    {
                      OFFSET -7.85698 -6.72885 9.63956
                      CHANNELS 6 Xposition Yposition Zposition Zrotation Xrotation Yrotation
                      End Site
                      {
                        OFFSET 0 0 0
                      }
                    }
                    JOINT r_lid_JNT
                    {
                      OFFSET -7.85684 -6.72882 -9.63956
                      CHANNELS 6 Xposition Yposition Zposition Zrotation Xrotation Yrotation
                      End Site
                      {
                        OFFSET 0 0 0
                      }
                    }
                  }
                }
              }
            }
            JOINT l_FwClavicleRoot_JNT
            {
              OFFSET -0.15532 -4.55898 6.72563
              CHANNELS 6 Xposition Yposition Zposition Zrotation Xrotation Yrotation
              JOINT l_FwLegBlendRoot_JNT
              {
                OFFSET 21.051 0 0
                CHANNELS 6 Xposition Yposition Zposition Zrotation Xrotation Yrotation
                JOINT l_FwLegBlendMiddle_JNT
                {
                  OFFSET 33.1145 0 0
                  CHANNELS 6 Xposition Yposition Zposition Zrotation Xrotation Yrotation
                  JOINT l_FwLegBlendTip_JNT
                  {
                    OFFSET 29.9221 0 0
                    CHANNELS 6 Xposition Yposition Zposition Zrotation Xrotation Yrotation
                    JOINT l_FwLegBlendEnd_JNT
                    {
                      OFFSET 9.62649 0 0
                      CHANNELS 6 Xposition Yposition Zposition Zrotation Xrotation Yrotation
                      End Site
                      {
                        OFFSET 0 0 0
                      }
                    }
                  }
                }
              }
            }
            JOINT r_FwClavicleRoot_JNT
            {
              OFFSET -0.15532 -4.55898 -6.72563
              CHANNELS 6 Xposition Yposition Zposition Zrotation Xrotation Yrotation
              JOINT r_FwLegBlendRoot_JNT
              {
                OFFSET 1.1653 -12.7157 -16.7361
                CHANNELS 6 Xposition Yposition Zposition Zrotation Xrotation Yrotation
                JOINT r_FwLegBlendMiddle_JNT
                {
                  OFFSET 16.2308 -5.97551 28.2387
                  CHANNELS 6 Xposition Yposition Zposition Zrotation Xrotation Yrotation
                  JOINT r_FwLegBlendTip_JNT
                  {
                    OFFSET 26.7017 -9.19239 -9.89204
                    CHANNELS 6 Xposition Yposition Zposition Zrotation Xrotation Yrotation
                    JOINT r_FwLegBlendEnd_JNT
                    {
                      OFFSET 4.44874 -7.74942 3.58114
                      CHANNELS 6 Xposition Yposition Zposition Zrotation Xrotation Yrotation
                      End Site
                      {
                        OFFSET 0 0 0
                      }
                    }
                  }
                }
              }
            }
          }
        }
      }
    }
    JOINT r_legIKClavicle_Root_JNT
    {
      OFFSET -0.323145 -1.55994 -9.59625
      CHANNELS 6 Xposition Yposition Zposition Zrotation Xrotation Yrotation
      JOINT r_legBlendRoot_JNT
      {
        OFFSET 13.2848 -5.74129 -7.13912
        CHANNELS 6 Xposition Yposition Zposition Zrotation Xrotation Yrotation
        JOINT r_legBlendMiddle_JNT
        {
          OFFSET 14.815 16.9375 15.0957
          CHANNELS 6 Xposition Yposition Zposition Zrotation Xrotation Yrotation
          JOINT r_legBlendEnd_JNT
          {
            OFFSET 23.6904 -6.58016 -3.54465
            CHANNELS 6 Xposition Yposition Zposition Zrotation Xrotation Yrotation
            JOINT r_legBlendTip_JNT
            {
              OFFSET 1.47758 -6.16068 -2.41079
              CHANNELS 6 Xposition Yposition Zposition Zrotation Xrotation Yrotation
              End Site
              {
                OFFSET 0 0 0
              }
            }
          }
        }
      }
    }
    JOINT tailRoot_JNT
    {
      OFFSET 2.82533 14.5514 0
      CHANNELS 6 Xposition Yposition Zposition Zrotation Xrotation Yrotation
      JOINT tailMid_JNT
      {
        OFFSET 7.87756 0 0
        CHANNELS 6 Xposition Yposition Zposition Zrotation Xrotation Yrotation
        JOINT tailEnd_JNT
        {
          OFFSET 6.52588 0 0
          CHANNELS 6 Xposition Yposition Zposition Zrotation Xrotation Yrotation
          End Site
          {
            OFFSET 0 0 0
          }
        }
      }
    }
    JOINT l_shoulderBkRoot_JNT
    {
      OFFSET -9.30511 7.998 11.2048
      CHANNELS 6 Xposition Yposition Zposition Zrotation Xrotation Yrotation
      JOINT l_shoulderBkMid_JNT
      {
        OFFSET 0 0 0
        CHANNELS 6 Xposition Yposition Zposition Zrotation Xrotation Yrotation
        End Site
        {
          OFFSET 0 0 0
        }
      }
    }
    JOINT r_shoulderBkRoot_JNT
    {
      OFFSET -9.30514 7.99801 -11.2048
      CHANNELS 6 Xposition Yposition Zposition Zrotation Xrotation Yrotation
      JOINT r_shoulderBkMid_JNT
      {
        OFFSET 0 0 0
        CHANNELS 6 Xposition Yposition Zposition Zrotation Xrotation Yrotation
        End Site
        {
          OFFSET 0 0 0
        }
      }
    }
  }
}
MOTION
Frames:	3
Frame Time:	0.0416667
0 0 0 0 0 -0 1.45408e-015 76.887 -83.2241 -7.94823e-017 7.49889 90 4.17299 -0.734432 9.59625 12.6782 61.2999 -67.9538 16.1374 -1.24117e-007 1.16873e-006 -26.9057 10.3846 81.9138 27.0969 -2.6537e-007 -5.68434e-014 4.98513e-015 2.22778e-015 -68.8961 24.8414 -3.99668e-007 5.68434e-014 6.99409e-015 9.41296e-016 13.7344 6.77858 -3.55271e-015 -2.84217e-014 -3.79152e-022 3.79152e-022 -6.36111e-015 -19.5397 7.82741e-007 -4.56271e-015 47.6332 -8.82781e-032 -8.82781e-032 -19.4076 1.98539 -3.88578e-015 -5.84101 1.76556e-031 -2.2414e-016 -18.5401 5.80111 5.88418e-015 -17.3747 -2.54444e-014 -1.16499e-014 -18.018 7.25644 -4.85916e-015 -26.4518 6.20795e-016 -7.86074e-015 -19.144 8.35871 1.2898e-014 -33.0891 0.0346331 -1.10668e-014 -16.3943 7.24542 6.9101e-014 -29.0244 7.4653e-015 -1.20529e-014 -19.3877 2.40349 7.12971e-015 -15.8625 -2.89444 -0.547819 -13.796 -11.6756 2.88658e-014 -11.4702 3.97569e-016 2.48481e-016 -15.825 14.8229 15.3879 101.773 2.59666 -24.2782 6.55118 1.42109e-013 9.76996e-015 1.66294 -7.5369 2.27757 6.73503 1.42109e-014 -4.61853e-014 3.18055e-015 -1.59028e-015 -0 1.34858 -27.5886 -1.35447e-014 92.7985 1.32192e-014 -1.66979e-014 -15.825 14.8229 -15.3879 -10.8666 1.9327 -4.56394 -2.40814 5.46468 -2.69372 1.59378 -7.57032 2.74284 -2.40922 6.0083 -1.85921 3.97569e-016 3.18055e-015 -2.98177e-016 4.72477 -9.87974 -6.66134e-016 92.7985 3.50417e-015 -90 4.31052 0.012849 3.96897 180 7.01671e-015 -180 0 0 -14.9226 1.98785e-016 1.59028e-015 3.97569e-016 0.0134199 -0.299989 3.98539 -1.49089e-016 1.59028e-015 -1.19271e-015 4.44089e-016 0 15.0019 2.48481e-016 1.59028e-015 -3.97569e-016 -4.47448 -0.143412 3.93693 -1.49089e-016 1.59028e-015 -1.19271e-015 9.35075e-005 -0.000392738 14.9226 2.48481e-016 1.59028e-015 -3.97569e-016 6.0207 -9.81639 -2.22045e-016 100.34 3.45138e-015 -90 2.71301 -0.162748 3.99146 180 7.01671e-015 180 -8.88178e-016 0 -14.9599 -3.97569e-016 0 3.97569e-016 -4.44089e-016 -0.0431035 3.99141 -1.98785e-016 0 7.95139e-016 4.44089e-016 1.42109e-014 14.9599 -0 0 3.97569e-016 -2.71301 -0.162761 3.99141 -1.98785e-016 0 7.95139e-016 0 1.42109e-014 14.9599 -0 0 3.97569e-016 -7.85698 -6.72885 9.63956 34.106 19.9417 85.9622 -7.85684 -6.72882 -9.63956 -145.894 19.9417 85.9622 -10.8033 7.07644 6.72563 -53.4327 26.2605 -112.654 21.051 -6.12186e-007 1.93141e-006 109.824 -69.5962 172.209 33.1145 8.3753e-007 -2.8019e-007 140.066 7.01671e-015 180 29.9221 7.10543e-015 0 18.6289 5.88434e-016 4.83519e-015 9.62649 1.77636e-014 7.10543e-015 29.859 -1.7467e-015 90 -8.78352 1.608 -6.72563 -104.351 9.37258 -17.9831 1.1653 -12.7157 -16.7361 68.2926 -63.2844 139.823 16.2308 -5.97551 28.2387 141.742 6.03299 162.122 26.7017 -9.19239 -9.89204 33.1623 35.7518 24.4125 4.44874 -7.74942 3.58114 29.859 -1.7467e-015 90 5.52025 0.163705 -9.59625 -6.00288 -9.24999 4.74057 13.2848 -5.74129 -7.13912 12.3157 8.24583 39.2416 14.815 16.9375 15.0957 -3.90288 3.96741 -53.9123 23.6904 -6.58016 -3.54465 49.0758 6.15796 -52.9986 1.47758 -6.16068 -2.41079 -1.59028e-015 6.36111e-015 -6.36111e-015 2.82533 14.5514 -1.68115e-015 -7.77825 1.15415e-015 -5.09243e-015 7.87756 0 -4.05902e-015 0.273978 -1.83067e-015 1.85487e-016 6.52588 1.42109e-014 1.78758e-015 -5.53157 2.64834e-031 -7.06225e-031 -9.30511 7.998 11.2048 -6.8505 -4.18474e-016 -90 0 0 0 2.75869e-032 0 -7.06225e-031 -9.30514 7.99801 -11.2048 173.149 4.18474e-016 -90 0 0 0 -7.72434e-032 0 -0 
0 0 0 0 0 -0 1.67551e-015 74.0731 -80.958 -4.79977e-017 5.83561 90 3.69683 -0.963525 9.59625 8.10257 61.2999 -67.9538 16.1374 -2.66226e-007 1.37374e-006 -26.9057 10.3846 103.385 27.0969 -7.10543e-015 2.13163e-014 4.98513e-015 2.22778e-015 -86.8871 24.8414 2.13163e-014 1.13687e-013 6.99409e-015 9.41296e-016 17.1366 6.77858 -7.10543e-015 0 1.89576e-022 3.79152e-022 -6.36111e-015 -19.5397 8.6273e-007 -4.78414e-015 52.6703 8.82781e-032 4.41391e-032 -19.4076 1.98539 -3.88578e-015 -5.84101 1.05934e-030 -2.2414e-016 -18.5401 5.80111 5.88418e-015 -17.3747 -2.54444e-014 -1.16499e-014 -18.018 7.25644 -4.85916e-015 -24.0113 2.8551e-016 -7.88004e-015 -19.144 8.35871 1.73912e-014 -34.8914 0.0346331 -1.10026e-014 -16.3943 7.24542 8.03455e-014 -27.1445 7.08481e-015 -1.23014e-014 -19.3877 2.40349 1.94289e-014 -19.6326 -2.8779 -0.632936 -13.796 -11.6756 2.77556e-014 -12.8968 3.97569e-016 -4.96962e-016 -15.825 14.8229 15.3879 101.773 2.59666 -24.2782 6.55118 1.27898e-013 7.10543e-015 1.66294 -7.5369 2.27757 6.73503 1.42109e-014 -4.9738e-014 -3.18055e-015 -1.59028e-015 -3.18055e-015 1.34858 -27.5886 -1.35447e-014 92.7985 1.33683e-014 -1.59028e-014 -15.825 14.8229 -15.3879 -10.8666 1.9327 -4.56394 -2.40814 5.46468 -2.69372 1.59378 -7.57032 2.74284 -2.40922 6.0083 -1.85921 -5.51738e-033 3.18055e-015 9.93923e-017 4.72477 -9.87974 6.66134e-016 92.7985 3.50417e-015 -90 4.31052 0.012849 3.96897 180 7.01671e-015 180 0 -1.42109e-014 -14.9226 1.49089e-016 0 -3.97569e-016 0.0134199 -0.299989 3.98539 -4.96962e-017 0 3.97569e-016 4.44089e-016 1.42109e-014 15.0019 -0 0 7.95139e-016 -4.47448 -0.143412 3.93693 -4.96962e-017 0 3.97569e-016 9.35075e-005 -0.000392738 14.9226 -0 0 7.95139e-016 6.0207 -9.81639 1.11022e-015 100.34 3.45138e-015 -90 2.71301 -0.162748 3.99146 -180 7.01671e-015 -180 -8.88178e-016 -1.42109e-014 -14.9599 1.98785e-016 0 -3.97569e-016 -1.33227e-015 -0.0431035 3.99141 1.98785e-016 -3.18055e-015 -7.95139e-016 4.44089e-016 0 14.9599 9.93923e-017 0 -3.97569e-016 -2.71301 -0.162761 3.99141 1.98785e-016 -3.18055e-015 -7.95139e-016 -4.44089e-016 0 14.9599 9.93923e-017 0 -3.97569e-016 -7.85698 -6.72885 9.63956 34.106 19.9417 85.9622 -7.85684 -6.72882 -9.63956 -145.894 19.9417 85.9622 -10.1904 5.90311 6.72563 -53.086 26.2605 -112.654 21.051 -4.58553e-007 9.77221e-007 73.3113 -62.5757 138.587 33.1145 8.3753e-007 -2.8019e-007 132.564 7.01671e-015 180 29.9221 -3.55271e-015 1.77636e-014 34.3898 1.87966e-015 4.49357e-015 9.62649 2.13163e-014 7.10543e-015 29.859 -1.7467e-015 90 -7.4021 0.139306 -6.72563 -104.133 9.37258 -17.9831 1.1653 -12.7157 -16.7361 77.7645 -58.6625 130.355 16.2308 -5.97551 28.2387 145.342 12.4697 140.032 26.7017 -9.19239 -9.89204 20.6013 49.7494 42.6961 4.44874 -7.74942 3.58114 29.859 -1.7467e-015 90 3.31531 -1.11919 -9.59625 -16.1402 -9.24999 4.74057 13.2848 -5.74129 -7.13912 41.285 4.47205 36.7387 14.815 16.9375 15.0957 -21.637 20.5918 -50.0712 23.6904 -6.58016 -3.54465 56.6858 6.23464 -54.3134 1.47758 -6.16068 -2.41079 -4.77083e-015 0 4.77083e-015 2.82533 14.5514 -1.6943e-015 -2.74616 7.03027e-016 -5.17403e-015 7.87756 -2.84217e-014 -4.18026e-015 1.69013 -1.82553e-015 2.30674e-016 6.52588 1.42109e-014 1.63758e-015 -11.908 8.82781e-032 7.06225e-031 -9.30511 7.998 11.2048 -6.8505 -4.18474e-016 -90 0 0 0 -1.10348e-032 0 -0 -9.30514 7.99801 -11.2048 173.149 4.18474e-016 -90 0 0 0 -5.37945e-032 0 -0 
0 0 0 0 0 -0 3.82557e-015 69.2675 -78.3459 -2.86845e-017 -7.30189 90 2.92518 -1.25451 9.59625 -1.96202 61.2999 -67.9538 16.1374 -4.72066e-007 1.58359e-006 -26.9057 10.3846 138.371 27.0969 -1.06581e-014 -8.52651e-014 1.27621e-014 -4.02803e-015 -125.034 24.8414 1.06581e-014 2.84217e-014 -8.04881e-007 9.58745e-007 1.57566 6.77858 -7.10543e-015 -2.84217e-014 3.79152e-022 -7.58303e-022 -3.18055e-015 -19.5397 9.36479e-007 -6.9342e-015 57.4895 4.41391e-032 4.41391e-032 -19.4076 1.98539 -3.88578e-015 -5.84101 3.97252e-031 -2.2414e-016 -18.5401 5.80111 5.88418e-015 -17.3747 -2.54444e-014 -1.16499e-014 -18.018 7.25644 -4.85907e-015 -16.1894 -7.89567e-016 -7.84558e-015 -19.144 8.35871 2.79667e-013 -36.1875 0.0346331 -1.09532e-014 -16.3943 7.24542 4.82493e-013 -24.9967 6.61114e-015 -1.25576e-014 -19.3877 2.40349 4.26173e-013 -24.4711 -2.84587 -0.797709 -13.796 -11.6756 2.84217e-014 -14.5078 -7.95139e-016 -3.35449e-016 -15.825 14.8229 15.3879 101.773 2.59666 -24.2782 6.55118 1.84741e-013 7.10543e-015 1.66294 -7.5369 2.27757 6.73503 4.26326e-014 -5.32907e-014 -4.41391e-032 7.95139e-016 3.18055e-015 1.34858 -27.5886 -1.33227e-014 92.7985 1.30452e-014 -1.70955e-014 -15.825 14.8229 -15.3879 -10.8666 1.9327 -4.56394 -2.40814 5.46468 -2.69372 1.59378 -7.57032 2.74284 -2.40922 6.0083 -1.85921 1.59028e-015 3.18055e-015 -9.93923e-016 4.72477 -9.87974 4.44089e-016 92.7985 3.50417e-015 -90 4.31052 0.012849 3.96897 180 7.01671e-015 180 8.88178e-016 1.42109e-014 -14.9226 2.23633e-016 3.97569e-016 -7.95139e-016 0.0134199 -0.299989 3.98539 -2.73329e-016 0 3.97569e-016 0 -1.42109e-014 15.0019 9.93923e-017 0 3.97569e-016 -4.47448 -0.143412 3.93693 -2.73329e-016 0 3.97569e-016 9.35075e-005 -0.000392738 14.9226 9.93923e-017 0 3.97569e-016 6.0207 -9.81639 4.44089e-016 100.34 3.45138e-015 -90 2.71301 -0.162748 3.99146 -180 7.01671e-015 -180 -4.44089e-016 0 -14.9599 1.98785e-016 3.18055e-015 -0 4.44089e-016 -0.0431035 3.99141 0 3.18055e-015 -0 -4.44089e-016 0 14.9599 0 3.18055e-015 -0 -2.71301 -0.162761 3.99141 0 3.18055e-015 -0 0 -1.42109e-014 14.9599 0 3.18055e-015 -0 -7.85698 -6.72885 9.63956 34.106 19.9417 85.9622 -7.85684 -6.72882 -9.63956 -145.894 19.9417 85.9622 -9.41806 4.08291 6.72563 -41.3657 26.2605 -112.654 21.051 -1.03456e-007 1.88709e-007 41.6622 -32.4453 114.161 33.1145 8.3753e-007 -2.8019e-007 92.8971 7.01671e-015 180 29.9221 -2.4869e-014 7.10543e-015 -12.8755 -2.025e-015 4.42998e-015 9.62649 2.13163e-014 7.10543e-015 29.859 -1.7467e-015 90 -5.53365 -1.61783 -6.72563 -87.8567 9.37258 -17.9831 1.1653 -12.7157 -16.7361 100.481 -51.339 107.645 16.2308 -5.97551 28.2387 156.847 18.7759 99.0694 26.7017 -9.19239 -9.89204 35.3685 31.2915 20.4216 4.44874 -7.74942 3.58114 29.859 -1.7467e-015 90 0.463754 -1.61382 -9.59625 -56.8434 -9.24999 4.74057 13.2848 -5.74129 -7.13912 71.2256 -0.18689 37.6447 14.815 16.9375 15.0957 -77.3192 44.8304 -17.5236 23.6904 -6.58016 -3.54465 63.3654 7.1143 -57.3532 1.47758 -6.16068 -2.41079 -0 0 6.36111e-015 2.82533 14.5514 -3.5233e-015 23.5755 -1.66408e-015 -4.94931e-015 7.87756 -1.42109e-014 -4.8075e-015 10.4826 -1.76882e-015 5.07005e-016 6.52588 -2.13163e-014 9.42039e-016 -17.9378 -8.82781e-031 -2.11868e-030 -9.30511 7.998 11.2048 -6.8505 -4.18474e-016 -90 0 0 0 8.82781e-032 0 -0 -9.30514 7.99801 -11.2048 173.149 4.18474e-016 -90 0 0 0 3.08973e-031 -1.59028e-015 -4.41391e-032 
